<svg width="32" height="32" viewBox="0 0 32 32" fill="none" xmlns="http://www.w3.org/2000/svg">
<g id="eye-slash">
<path id="Duo" opacity="0.4" fill-rule="evenodd" clip-rule="evenodd" d="M16 6.33325C14.6202 6.33325 13.374 6.50305 12.2538 6.79714C12.0431 6.85245 11.8368 6.91219 11.6348 6.97606C11.1082 7.14255 10.5463 6.85063 10.3799 6.32403C10.2134 5.79744 10.5053 5.23559 11.0319 5.0691C11.2654 4.99528 11.5034 4.92638 11.7459 4.8627C13.0374 4.52365 14.4545 4.33325 16 4.33325C20.9541 4.33325 24.5429 6.28874 26.887 8.72294C29.1913 11.1159 30.3333 14.02 30.3333 15.9999C30.3333 17.4532 29.7194 19.376 28.5288 21.2109C28.3727 21.4515 28.206 21.6916 28.0287 21.9301C27.699 22.3732 27.0726 22.4652 26.6295 22.1356C26.1863 21.806 26.0943 21.1796 26.4239 20.7364C26.5756 20.5325 26.718 20.3274 26.851 20.1223C27.8942 18.5146 28.3333 16.9655 28.3333 15.9999C28.3333 14.6465 27.4754 12.2173 25.4464 10.1102C23.4571 8.04443 20.3793 6.33325 16 6.33325Z" fill="#22272F"/>
<path id="Icon" fill-rule="evenodd" clip-rule="evenodd" d="M3.29291 3.29289C3.68344 2.90237 4.3166 2.90237 4.70713 3.29289L8.47483 7.06059L13.8786 12.4644L19.5355 18.1213L24.9394 23.5252L28.7071 27.2929C29.0977 27.6834 29.0977 28.3166 28.7071 28.7071C28.3166 29.0976 27.6834 29.0976 27.2929 28.7071L24.0983 25.5124C21.971 26.8083 19.2815 27.6667 16 27.6667C11.046 27.6667 7.45708 25.7112 5.11303 23.277C2.80875 20.8841 1.66669 17.9799 1.66669 16C1.66669 13.7463 3.15228 10.2393 6.25151 7.6657L3.29291 4.70711C2.90239 4.31658 2.90239 3.68342 3.29291 3.29289ZM7.67265 9.08684C4.86849 11.3406 3.66669 14.3919 3.66669 16C3.66669 17.3534 4.52463 19.7826 6.55367 21.8897C8.54296 23.9555 11.6207 25.6667 16 25.6667C18.6915 25.6667 20.8856 25.0206 22.6357 24.0499L18.7572 20.1714C17.967 20.6946 17.0186 21 15.9999 21C13.2385 21 10.9999 18.7614 10.9999 16C10.9999 14.9813 11.3053 14.0329 11.8285 13.2426L7.67265 9.08684ZM13.2921 14.7063C13.1046 15.098 12.9999 15.5364 12.9999 16C12.9999 17.6569 14.343 19 15.9999 19C16.4635 19 16.9019 18.8953 17.2936 18.7078L13.2921 14.7063Z" fill="#22272F"/>
</g>
</svg>
