<svg width="32" height="32" viewBox="0 0 32 32" fill="none" xmlns="http://www.w3.org/2000/svg">
<g id="eye">
<path id="Duo" opacity="0.4" fill-rule="evenodd" clip-rule="evenodd" d="M15.9998 13C14.343 13 12.9998 14.3431 12.9998 16C12.9998 17.6569 14.343 19 15.9998 19C17.6567 19 18.9998 17.6569 18.9998 16C18.9998 14.3431 17.6567 13 15.9998 13ZM10.9998 16C10.9998 13.2386 13.2384 11 15.9998 11C18.7612 11 20.9998 13.2386 20.9998 16C20.9998 18.7614 18.7612 21 15.9998 21C13.2384 21 10.9998 18.7614 10.9998 16Z" fill="#22272F"/>
<path id="Icon" fill-rule="evenodd" clip-rule="evenodd" d="M6.55367 10.1102C4.52463 12.2173 3.66669 14.6465 3.66669 15.9999C3.66669 17.3533 4.52463 19.7825 6.55367 21.8896C8.54296 23.9554 11.6207 25.6666 16 25.6666C20.3793 25.6666 23.4571 23.9554 25.4464 21.8896C27.4754 19.7825 28.3334 17.3533 28.3334 15.9999C28.3334 14.6465 27.4754 12.2173 25.4464 10.1102C23.4571 8.04443 20.3793 6.33325 16 6.33325C11.6207 6.33325 8.54296 8.04443 6.55367 10.1102ZM5.11303 8.72294C7.45708 6.28874 11.046 4.33325 16 4.33325C20.9541 4.33325 24.543 6.28874 26.887 8.72294C29.1913 11.1159 30.3334 14.02 30.3334 15.9999C30.3334 17.9799 29.1913 20.884 26.887 23.2769C24.543 25.7111 20.9541 27.6666 16 27.6666C11.046 27.6666 7.45708 25.7111 5.11303 23.2769C2.80875 20.884 1.66669 17.9799 1.66669 15.9999C1.66669 14.02 2.80875 11.1159 5.11303 8.72294Z" fill="#22272F"/>
</g>
</svg>
